Coordinates
version=1
nRows=293
nColumns=2
inDegrees=no
endheader
time	elbow_flexion
1.0005002501250624	1.0498168492640236
1.0015007503751876	1.0550553143059185
1.0025012506253126	1.0602933860951773
1.0035017508754376	1.065530802550844
1.0045022511255628	1.0707673017231227
1.0055027513756878	1.0760026218457597
1.0065032516258128	1.0812365013883583
1.007503751875938	1.086468679108584
1.008504252126063	1.091698894104245
1.009504752376188	1.0969268858652403
1.0105052526263132	1.1021523943253324
1.0115057528764382	1.1073751599137276
1.0125062531265632	1.112594923606462
1.0135067533766882	1.1178114269775419
1.0145072536268134	1.1230244122498367
1.0155077538769384	1.1282336223456966
1.0165082541270634	1.1334388009372809
1.0175087543771886	1.1386396924965647
1.0185092546273136	1.1438360423450071
1.0195097548774386	1.149027596702874
1.0205102551275638	1.1542141027381763
1.0215107553776888	1.1593953086152065
1.0225112556278138	1.1645709635426769
1.023511755877939	1.1697408178214075
1.024512256128064	1.1749046228915616
1.025512756378189	1.1800621313794208
1.0265132566283142	1.1852130971436579
1.0275137568784392	1.1903572753211002
1.0285142571285641	1.1954944223719817
1.0295147573786894	1.2006242961246356
1.0305152576288144	1.2057466558196324
1.0315157578789393	1.2108612621533497
1.0325162581290646	1.2159678773209397
1.0335167583791895	1.221066265058689
1.0345172586293145	1.2261561906857656
1.0355177588794398	1.23123742114532
1.0365182591295647	1.2363097250449302
1.0375187593796897	1.241372872696395
1.0385192596298147	1.2464266361548353
1.03951975987994	1.251470789257109
1.040520260130065	1.2565051076595173
1.04152076038019	1.2615293688748022
1.0425212606303151	1.2665433523084066
1.0435217608804401	1.2715468392939986
1.0445222611305651	1.27653961312825
1.0455227613806903	1.2815214591048498
1.0465232616308153	1.2864921645477454
1.0475237618809403	1.2914515188436153
1.0485242621310655	1.2963993134735454
1.0495247623811905	1.3013353420439107
1.0505252626313155	1.3062594003164603
1.0515257628814407	1.3111712862375855
1.0525262631315657	1.316070799966771
1.0535267633816907	1.32095774390423
1.054527263631816	1.3258319227177056
1.055527763881941	1.3306931433684328
1.056528264132066	1.3355412151362782
1.0575287643821911	1.3403759496440224
1.0585292646323161	1.3451971608807982
1.059529764882441	1.3500046652246915
1.060530265132566	1.3547982814644748
1.0615307653826913	1.3595778308204993
1.0625312656328163	1.3643431369647196
1.0635317658829413	1.3690940260398752
1.0645322661330665	1.3738303266778047
1.0655327663831915	1.3785518700169006
1.0665332666333165	1.3832584897187208
1.0675337668834417	1.3879500219837264
1.0685342671335667	1.392626305566172
1.0695347673836917	1.397287181788146
1.070535267633817	1.4019324945527516
1.071535767883942	1.4065620903564386
1.0725362681340669	1.411175818300499
1.073536768384192	1.4157735301017067
1.074537268634317	1.420355080102122
1.075537768884442	1.4249203252780693
1.0765382691345673	1.4294691252482727
1.0775387693846923	1.4340013422811686
1.0785392696348173	1.4385168413014064
1.0795397698849425	1.443015489895527
1.0805402701350675	1.447497158316829
1.0815407703851925	1.451961719489447
1.0825412706353177	1.4564090490116233
1.0835417708854427	1.460839025158192
1.0845422711355677	1.4652515288822916
1.0855427713856927	1.4696464438162953
1.0865432716358179	1.4740236562719822
1.0875437718859429	1.4783830552399484
1.0885442721360679	1.482724532388278
1.089544772386193	1.487047982060468
1.090545272636318	1.4913533012726252
1.091545772886443	1.4956403897099495
1.0925462731365683	1.4999091497225023
1.0935467733866933	1.5041594863202716
1.0945472736368183	1.5083913071675583
1.0955477738869435	1.5126045225766742
1.0965482741370685	1.5167990455009703
1.0975487743871934	1.5209747915272196
1.0985492746373187	1.5251316788673388
1.0995497748874437	1.5292696283494813
1.1005502751375686	1.5333885634085107
1.1015507753876939	1.5374884100758537
1.1025512756378189	1.5415690969687534
1.1035517758879438	1.5456305552789429
1.104552276138069	1.5496727187607306
1.105552776388194	1.553695523718524
1.106553276638319	1.5576989089938074
1.1075537768884443	1.5616828159515717
1.1085542771385692	1.5656471884662153
1.1095547773886942	1.5695919729069394
1.1105552776388192	1.5735171181226295
1.1115557778889444	1.5774225754262532
1.1125562781390694	1.5813082985787734
1.1135567783891944	1.5851742437726082
1.1145572786393196	1.5890203696146263
1.1155577788894446	1.5928466371087067
1.1165582791395696	1.5966530096378766
1.1175587793896948	1.6004394529460293
1.1185592796398198	1.604205935119239
1.1195597798899448	1.6079524265666953
1.12056028014007	1.6116789000012564
1.121560780390195	1.6153853304196335
1.12256128064032	1.6190716950822386
1.1235617808904452	1.622737973492681
1.1245622811405702	1.6263841473769454
1.1255627813906952	1.630010200662256
1.1265632816408204	1.6336161194556391
1.1275637818909454	1.637201892022198
1.1285642821410704	1.6407675087631122
1.1295647823911956	1.6443129621933759
1.1305652826413206	1.647838246919279
1.1315657828914456	1.651343359615656
1.1325662831415706	1.654828299002901
1.1335667833916958	1.6582930658237758
1.1345672836418208	1.6617376628200005
1.1355677838919458	1.6651620947086692
1.136568284142071	1.6685663681584715
1.137568784392196	1.671950491765751
1.138569284642321	1.675314476030405
1.1395697848924462	1.6786583333316383
1.1405702851425712	1.681982077903576
1.1415707853926962	1.6852857258107612
1.1425712856428214	1.68856929492353
1.1435717858929464	1.691832804893284
1.1445722861430714	1.6950762771276746
1.1455727863931966	1.6982997347656994
1.1465732866433216	1.701503202652726
1.1475737868934466	1.7046867073154575
1.1485742871435718	1.7078502769368393
1.1495747873936968	1.7109939413309236
1.1505752876438218	1.714117731917705
1.151575787893947	1.717221681697923
1.152576288144072	1.7203058252278545
1.153576788394197	1.7233701985940988
1.1545772886443222	1.7264148393883654
1.1555777888944472	1.7294397866822657
1.1565782891445722	1.7324450810021355
1.1575787893946972	1.7354307643038744
1.1585792896448224	1.7383968799478269
1.1595797898949474	1.7413434726737014
1.1605802901450724	1.7442705885755463
1.1615807903951976	1.7471782750767817
1.1625812906453226	1.7500665809052924
1.1635817908954476	1.7529355560686048
1.1645822911455728	1.7557852518291328
1.1655827913956978	1.7586157206795154
1.1665832916458228	1.7614270163180499
1.167583791895948	1.7642191936242215
1.168584292146073	1.7669923086343386
1.169584792396198	1.7697464185172844
1.1705852926463232	1.7724815815503852
1.1715857928964482	1.7751978570953957
1.1725862931465731	1.7778953055746296
1.1735867933966984	1.7805739884472085
1.1745872936468233	1.7832339681854594
1.1755877938969483	1.785875308251459
1.1765882941470736	1.7884980730737232
1.1775887943971985	1.7911023280240517
1.1785892946473235	1.7936881393945387
1.1795897948974485	1.7962555743747386
1.1805902951475737	1.7988047010290056
1.1815907953976987	1.801335588274001
1.1825912956478237	1.8038483058563828
1.183591795897949	1.806342924330668
1.184592296148074	1.8088195150372803
1.185592796398199	1.8112781500807902
1.1865932966483241	1.8137189023083358
1.1875937968984491	1.8161418452882412
1.1885942971485741	1.8185470532888337
1.1895947973986993	1.820934601257456
1.1905952976488243	1.8233045647996784
1.1915957978989493	1.8256570201587212
1.1925962981490745	1.8279920441950783
1.1935967983991995	1.8303097143663505
1.1945972986493245	1.8326101087072912
1.1955977988994497	1.8348933058100658
1.1965982991495747	1.8371593848047194
1.1975987993996997	1.8394084253398701
1.198599299649825	1.8416405075636149
1.19959979989995	1.843855712104651
1.200600300150075	1.8460541200536305
1.2016008004002001	1.8482358129447247
1.2026013006503251	1.8504008727374146
1.20360180090045	1.8525493817985126
1.204602301150575	1.8546814228843995
1.2056028014007003	1.8567970791234945
1.2066033016508253	1.8588964339989438
1.2076038019009503	1.8609795713315487
1.2086043021510755	1.863046575262909
1.2096048024012005	1.8650975302387984
1.2106053026513255	1.867132520992771
1.2116058029014507	1.869151632529994
1.2126063031515757	1.8711549501113058
1.2136068034017007	1.8731425592375088
1.214607303651826	1.8751145456338845
1.215607803901951	1.877070995234938
1.2166083041520759	1.8790119941693741
1.217608804402201	1.8809376287452966
1.218609304652326	1.8828479854356361
1.219609804902451	1.8847431508638042
1.2206103051525763	1.8866232117895734
1.2216108054027013	1.8884882550951827
1.2226113056528263	1.8903383677716687
1.2236118059029515	1.8921736369054174
1.2246123061530765	1.89399414966494
1.2256128064032015	1.895799993287874
1.2266133066533267	1.8975912550682026
1.2276138069034517	1.8993680223436897
1.2286143071535767	1.9011303824835437
1.2296148074037017	1.9028784228762903
1.2306153076538269	1.904612230917864
1.2316158079039519	1.906331893999918
1.2326163081540769	1.908037499498344
1.233616808404202	1.9097291347620067
1.234617308654327	1.911406887101689
1.235617808904452	1.9130708437792454
1.2366183091545773	1.9147210919969684
1.2376188094047023	1.916357718887153
1.2386193096548272	1.9179808115018768
1.2396198099049525	1.9195904568029751
1.2406203101550775	1.9211867416522226
1.2416208104052024	1.9227697528017125
1.2426213106553277	1.9243395768844382
1.2436218109054527	1.925896300405065
1.2446223111555776	1.9274400097309063
1.2456228114057029	1.9289707910830842
1.2466233116558278	1.9304887305278846
1.2476238119059528	1.9319939139683064
1.248624312156078	1.933486427135792
1.249624812406203	1.9349663555821464
1.250625312656328	1.9364337846716408
1.251625812906453	1.9378887995733003
1.2526263131565782	1.9393314852533656
1.2536268134067032	1.940761926467939
1.2546273136568282	1.942180207755805
1.2556278139069534	1.9435864134314254
1.2566283141570784	1.9449806275781027
1.2576288144072034	1.9463629340413238
1.2586293146573286	1.94773341642226
1.2596298149074536	1.9490921580714426
1.2606303151575786	1.9504392420825998
1.2616308154077038	1.9517747512866546
1.2626313156578288	1.9530987682458838
1.2636318159079538	1.9544113752482395
1.264632316158079	1.9557126543018195
1.265632816408204	1.9570026871294979
1.266633316658329	1.958281555163706
1.2676338169084542	1.959549339541364
1.2686343171585792	1.9608061210989576
1.2696348174087042	1.9620519803677694
1.2706353176588294	1.9632869975692429
1.2716358179089544	1.964511252610498
1.2726363181590794	1.965724825079983
1.2736368184092046	1.9669277942432635
1.2746373186593296	1.9681202390389516
1.2756378189094546	1.9693022380747631
1.2766383191595796	1.9704738696237154
1.2776388194097048	1.971635211620445
1.2786393196598298	1.9727863416576632
1.2796398199099548	1.973927336982732
1.28064032016008	1.9750582744943659
1.281640820410205	1.9761792307394561
1.28264132066033	1.9772902819100164
1.2836418209104552	1.9783915038402449
1.2846423211605802	1.9794829720037024
1.2856428214107052	1.9805647615106112
1.2866433216608304	1.981636947105258
1.2876438219109554	1.9826996031635122
1.2886443221610804	1.9837528036904555
1.2896448224112056	1.9847966223181146
1.2906453226613306	1.9858311323032982
1.2916458229114556	1.986856406525545
1.2926463231615808	1.9878725174851637
